<svg width="48" height="48" viewBox="0 0 48 48" xmlns="http://www.w3.org/2000/svg" style="image-rendering: pixelated;">
  <rect x="8" y="18" width="3" height="24" rx="1" fill="#3A5A20" transform="rotate(-15,9,42)"/>
  <rect x="37" y="16" width="3" height="26" rx="1" fill="#3A5A20" transform="rotate(14,38,42)"/>
  <rect x="13" y="14" width="3" height="28" rx="1" fill="#4A6A30" transform="rotate(-10,14,42)"/>
  <rect x="32" y="12" width="3" height="30" rx="1" fill="#4A6A30" transform="rotate(8,33,42)"/>
  <rect x="18" y="10" width="3" height="32" rx="1" fill="#5A7A40" transform="rotate(-5,19,42)"/>
  <rect x="27" y="8" width="3" height="34" rx="1" fill="#5A7A40" transform="rotate(4,28,42)"/>
  <rect x="22" y="6" width="4" height="36" rx="1" fill="#6A8A50"/>
  <rect x="23" y="8" width="2" height="32" fill="#7A9A60" opacity="0.4"/>
  <ellipse cx="9" cy="16" rx="2.5" ry="3.5" fill="#B8A870" opacity="0.5"/>
  <ellipse cx="38" cy="14" rx="2.5" ry="3.5" fill="#B8A870" opacity="0.45"/>
  <ellipse cx="19" cy="8" rx="2" ry="3" fill="#C8B878" opacity="0.4"/>
  <circle cx="14" cy="12" r="2" fill="#E8DFF0" opacity="0.35"/>
  <circle cx="33" cy="10" r="1.5" fill="#F0D8D0" opacity="0.3"/>
</svg>