<svg width="48" height="48" viewBox="0 0 48 48" xmlns="http://www.w3.org/2000/svg" style="image-rendering: pixelated;">
  <rect x="22" y="16" width="4" height="28" rx="1" fill="#A08060"/>
  <rect x="23" y="16" width="2" height="28" fill="#B89870" opacity="0.4"/>
  <rect x="8" y="4" width="18" height="4" rx="1" fill="#9A9490"/>
  <rect x="4" y="6" width="8" height="4" rx="1" fill="#9A9490"/>
  <rect x="2" y="8" width="6" height="4" rx="1" fill="#8A8480"/>
  <rect x="2" y="10" width="4" height="4" fill="#7A7470"/>
  <rect x="2" y="12" width="2" height="4" fill="#7A7470"/>
  <rect x="24" y="4" width="4" height="6" rx="1" fill="#9A9490"/>
  <rect x="26" y="8" width="4" height="6" rx="1" fill="#8A8480"/>
  <rect x="10" y="4" width="10" height="1" fill="#FFFFFF" opacity="0.25"/>
  <rect x="4" y="6" width="2" height="4" fill="#FFFFFF" opacity="0.2"/>
  <rect x="20" y="30" width="8" height="3" rx="1" fill="#8A7050"/>
  <rect x="20" y="36" width="8" height="3" rx="1" fill="#8A7050"/>
</svg>