<svg width="48" height="48" viewBox="0 0 48 48" xmlns="http://www.w3.org/2000/svg" style="image-rendering: pixelated;">
  <rect x="19" y="26" width="10" height="18" rx="2" fill="#6A5030"/>
  <rect x="21" y="26" width="4" height="18" fill="#7A6040" opacity="0.4"/>
  <rect x="15" y="40" width="6" height="4" rx="1" fill="#6A5030"/>
  <rect x="27" y="40" width="6" height="4" rx="1" fill="#6A5030"/>
  <rect x="10" y="22" width="10" height="4" rx="1" fill="#6A5030"/>
  <rect x="28" y="20" width="10" height="4" rx="1" fill="#6A5030"/>
  <ellipse cx="24" cy="14" rx="18" ry="14" fill="#4A7A30"/>
  <ellipse cx="22" cy="12" rx="16" ry="12" fill="#5A8A40"/>
  <ellipse cx="8" cy="18" rx="8" ry="7" fill="#4A7A30"/>
  <ellipse cx="7" cy="17" rx="7" ry="6" fill="#5A8A40"/>
  <ellipse cx="38" cy="16" rx="8" ry="7" fill="#4A7A30"/>
  <ellipse cx="37" cy="15" rx="7" ry="6" fill="#5A8A40"/>
  <rect x="12" y="6" width="6" height="3" fill="#6A9A50" opacity="0.4"/>
  <rect x="32" y="10" width="4" height="2" fill="#6A9A50" opacity="0.35"/>
  <rect x="22" y="30" width="4" height="2" fill="#5A4020" opacity="0.3"/>
  <rect x="21" y="34" width="6" height="1" fill="#5A4020" opacity="0.25"/>
</svg>