<svg width="128" height="128" viewBox="0 0 64 64" xmlns="http://www.w3.org/2000/svg" style="image-rendering: pixelated;">
  <!-- Wool body -->
  <rect x="14" y="22" width="36" height="28" fill="#F5EEF8"/>
  <rect x="18" y="18" width="28" height="4" fill="#F5EEF8"/>
  <rect x="12" y="26" width="4" height="20" fill="#F5EEF8"/>
  <rect x="48" y="26" width="4" height="20" fill="#F5EEF8"/>
  <rect x="16" y="48" width="32" height="4" fill="#E8DFF0"/>
  <rect x="14" y="38" width="36" height="12" fill="#EDE5F5" opacity="0.5"/>

  <!-- Face -->
  <rect x="26" y="28" width="16" height="14" fill="#E8D8C0"/>
  <rect x="24" y="30" width="2" height="10" fill="#E8D8C0"/>
  <rect x="42" y="30" width="2" height="10" fill="#E8D8C0"/>

  <!-- Eyes (open) -->
  <rect x="30" y="32" width="2" height="4" fill="#2D2B3D"/>
  <rect x="38" y="32" width="2" height="4" fill="#2D2B3D"/>

  <!-- Cheeks -->
  <rect x="26" y="36" width="4" height="2" fill="#E8A8A0" opacity="0.7"/>
  <rect x="40" y="36" width="4" height="2" fill="#E8A8A0" opacity="0.7"/>

  <!-- Mouth -->
  <rect x="34" y="37" width="2" height="2" fill="#2D2B3D"/>
  <rect x="36" y="38" width="2" height="2" fill="#2D2B3D"/>

  <!-- Ears -->
  <rect x="22" y="24" width="4" height="6" fill="#E8D8C0"/>
  <rect x="44" y="24" width="4" height="6" fill="#E8D8C0"/>

  <!-- Flower -->
  <rect x="18" y="16" width="8" height="8" fill="#C8DEF0"/>
  <rect x="22" y="14" width="4" height="4" fill="#C8DEF0"/>
  <rect x="14" y="18" width="4" height="4" fill="#C8DEF0"/>
  <rect x="20" y="18" width="4" height="4" fill="#F0E868"/>
  <rect x="14" y="14" width="4" height="4" fill="#78B868"/>

  <!-- Hooves -->
  <rect x="18" y="50" width="4" height="4" fill="#C8B888"/>
  <rect x="28" y="50" width="4" height="4" fill="#C8B888"/>
  <rect x="36" y="50" width="4" height="4" fill="#C8B888"/>
  <rect x="44" y="50" width="4" height="4" fill="#C8B888"/>
</svg>
