<svg xmlns="http://www.w3.org/2000/svg" width="80" height="80" viewBox="0 0 64 64" style="image-rendering:pixelated">
<rect x="20" y="30" width="24" height="18" fill="#F5EEF8"/>
<rect x="22" y="28" width="20" height="4" fill="#F5EEF8"/>
<rect x="18" y="32" width="2" height="14" fill="#F5EEF8"/>
<rect x="44" y="32" width="2" height="14" fill="#F5EEF8"/>
<rect x="20" y="46" width="24" height="2" fill="#E8DFF0"/>
<rect x="22" y="28" width="20" height="1" fill="#2D2B3D"/>
<rect x="20" y="29" width="2" height="1" fill="#2D2B3D"/>
<rect x="42" y="29" width="2" height="1" fill="#2D2B3D"/>
<rect x="18" y="30" width="2" height="1" fill="#2D2B3D"/>
<rect x="44" y="30" width="2" height="1" fill="#2D2B3D"/>
<rect x="17" y="31" width="1" height="16" fill="#2D2B3D"/>
<rect x="46" y="31" width="1" height="16" fill="#2D2B3D"/>
<rect x="18" y="46" width="2" height="1" fill="#2D2B3D"/>
<rect x="44" y="46" width="2" height="1" fill="#2D2B3D"/>
<rect x="20" y="47" width="24" height="1" fill="#2D2B3D"/>
<rect x="26" y="34" width="12" height="8" fill="#E8D8C0"/>
<rect x="24" y="36" width="2" height="5" fill="#E8D8C0"/>
<rect x="38" y="36" width="2" height="5" fill="#E8D8C0"/>
<rect x="29" y="36" width="2" height="2" fill="#2D2B3D"/>
<rect x="35" y="36" width="2" height="2" fill="#2D2B3D"/>
<rect x="26" y="39" width="3" height="1" fill="#E8A8A0" opacity="0.7"/>
<rect x="37" y="39" width="3" height="1" fill="#E8A8A0" opacity="0.7"/>
<rect x="33" y="40" width="1" height="1" fill="#2D2B3D"/>
<rect x="24" y="32" width="2" height="4" fill="#E8D8C0"/>
<rect x="40" y="32" width="2" height="4" fill="#E8D8C0"/>
<rect x="24" y="47" width="3" height="3" fill="#C8B888"/>
<rect x="30" y="47" width="3" height="3" fill="#C8B888"/>
<rect x="37" y="47" width="3" height="3" fill="#C8B888"/>
</svg>
