<svg xmlns="http://www.w3.org/2000/svg" width="80" height="80" viewBox="0 0 64 64" style="image-rendering:pixelated">
<rect x="14" y="22" width="36" height="28" fill="#F8F0D8"/>
<rect x="18" y="18" width="28" height="4" fill="#F8F0D8"/>
<rect x="12" y="26" width="4" height="20" fill="#F8F0D8"/>
<rect x="48" y="26" width="4" height="20" fill="#F8F0D8"/>
<rect x="10" y="20" width="4" height="2" fill="#F8F0D8"/>
<rect x="50" y="20" width="4" height="2" fill="#F8F0D8"/>
<rect x="16" y="48" width="32" height="4" fill="#F0E8C8"/>
<rect x="14" y="38" width="36" height="12" fill="#F0E8C8" opacity="0.5"/>
<rect x="18" y="16" width="28" height="2" fill="#B8964A"/>
<rect x="16" y="18" width="4" height="2" fill="#B8964A"/>
<rect x="44" y="18" width="4" height="2" fill="#B8964A"/>
<rect x="12" y="20" width="4" height="2" fill="#B8964A"/>
<rect x="48" y="20" width="4" height="2" fill="#B8964A"/>
<rect x="8" y="22" width="4" height="2" fill="#B8964A"/>
<rect x="52" y="22" width="4" height="2" fill="#B8964A"/>
<rect x="8" y="24" width="2" height="26" fill="#B8964A"/>
<rect x="54" y="24" width="2" height="26" fill="#B8964A"/>
<rect x="10" y="50" width="4" height="2" fill="#B8964A"/>
<rect x="50" y="50" width="4" height="2" fill="#B8964A"/>
<rect x="14" y="52" width="36" height="2" fill="#B8964A"/>
<rect x="26" y="28" width="16" height="14" fill="#E8D8C0"/>
<rect x="24" y="30" width="2" height="10" fill="#E8D8C0"/>
<rect x="42" y="30" width="2" height="10" fill="#E8D8C0"/>
<rect x="30" y="32" width="2" height="2" fill="#2D2B3D"/>
<rect x="30" y="34" width="2" height="2" fill="#2D2B3D"/>
<rect x="38" y="32" width="2" height="2" fill="#2D2B3D"/>
<rect x="38" y="34" width="2" height="2" fill="#2D2B3D"/>
<rect x="26" y="36" width="4" height="2" fill="#E8A8A0" opacity="0.7"/>
<rect x="40" y="36" width="4" height="2" fill="#E8A8A0" opacity="0.7"/>
<rect x="34" y="37" width="2" height="2" fill="#2D2B3D"/>
<rect x="36" y="38" width="2" height="2" fill="#2D2B3D"/>
<rect x="22" y="24" width="4" height="6" fill="#E8D8C0"/>
<rect x="44" y="24" width="4" height="6" fill="#E8D8C0"/>
<rect x="14" y="52" width="4" height="4" fill="#C8B888"/>
<rect x="24" y="52" width="4" height="4" fill="#C8B888"/>
<rect x="36" y="52" width="4" height="4" fill="#C8B888"/>
<rect x="46" y="52" width="4" height="4" fill="#C8B888"/>
</svg>
