<svg width="80" height="80" viewBox="0 0 64 64" style="image-rendering:pixelated">
<rect x="16" y="26" width="32" height="24" fill="#F5EEF8"/>
<rect x="20" y="22" width="24" height="4" fill="#F5EEF8"/>
<rect x="14" y="30" width="4" height="16" fill="#F5EEF8"/>
<rect x="46" y="30" width="4" height="16" fill="#F5EEF8"/>
<rect x="18" y="48" width="28" height="2" fill="#E8DFF0"/>
<rect x="16" y="38" width="32" height="10" fill="#EDE5F5" opacity="0.4"/>
<rect x="20" y="22" width="24" height="2" fill="#2D2B3D"/>
<rect x="18" y="24" width="2" height="2" fill="#2D2B3D"/>
<rect x="44" y="24" width="2" height="2" fill="#2D2B3D"/>
<rect x="14" y="26" width="2" height="2" fill="#2D2B3D"/>
<rect x="48" y="26" width="2" height="2" fill="#2D2B3D"/>
<rect x="12" y="28" width="2" height="2" fill="#2D2B3D"/>
<rect x="50" y="28" width="2" height="2" fill="#2D2B3D"/>
<rect x="12" y="30" width="2" height="18" fill="#2D2B3D"/>
<rect x="50" y="30" width="2" height="18" fill="#2D2B3D"/>
<rect x="14" y="48" width="2" height="2" fill="#2D2B3D"/>
<rect x="48" y="48" width="2" height="2" fill="#2D2B3D"/>
<rect x="18" y="50" width="28" height="2" fill="#2D2B3D"/>
<rect x="26" y="30" width="14" height="12" fill="#E8D8C0"/>
<rect x="24" y="32" width="2" height="8" fill="#E8D8C0"/>
<rect x="40" y="32" width="2" height="8" fill="#E8D8C0"/>
<rect x="30" y="34" width="2" height="2" fill="#2D2B3D"/>
<rect x="36" y="34" width="2" height="2" fill="#2D2B3D"/>
<rect x="26" y="38" width="4" height="2" fill="#E8A8A0" opacity="0.7"/>
<rect x="38" y="38" width="4" height="2" fill="#E8A8A0" opacity="0.7"/>
<rect x="34" y="39" width="2" height="2" fill="#2D2B3D"/>
<rect x="22" y="28" width="4" height="4" fill="#E8D8C0"/>
<rect x="42" y="28" width="4" height="4" fill="#E8D8C0"/>
<rect x="20" y="50" width="4" height="4" fill="#C8B888"/>
<rect x="28" y="50" width="4" height="4" fill="#C8B888"/>
<rect x="36" y="50" width="4" height="4" fill="#C8B888"/>
<rect x="42" y="50" width="4" height="4" fill="#C8B888"/>
</svg>
