<svg width="80" height="80" viewBox="0 0 64 64" style="image-rendering:pixelated">
<rect x="24" y="34" width="16" height="12" fill="#F5EEF8"/>
<rect x="26" y="32" width="12" height="4" fill="#F5EEF8"/>
<rect x="22" y="36" width="2" height="8" fill="#F5EEF8"/>
<rect x="40" y="36" width="2" height="8" fill="#F5EEF8"/>
<rect x="24" y="44" width="16" height="2" fill="#E8DFF0"/>
<rect x="26" y="32" width="12" height="1" fill="#2D2B3D"/>
<rect x="24" y="33" width="2" height="1" fill="#2D2B3D"/>
<rect x="38" y="33" width="2" height="1" fill="#2D2B3D"/>
<rect x="22" y="34" width="2" height="1" fill="#2D2B3D"/>
<rect x="40" y="34" width="2" height="1" fill="#2D2B3D"/>
<rect x="21" y="35" width="1" height="10" fill="#2D2B3D"/>
<rect x="42" y="35" width="1" height="10" fill="#2D2B3D"/>
<rect x="22" y="44" width="2" height="1" fill="#2D2B3D"/>
<rect x="40" y="44" width="2" height="1" fill="#2D2B3D"/>
<rect x="24" y="45" width="16" height="1" fill="#2D2B3D"/>
<rect x="28" y="36" width="8" height="6" fill="#E8D8C0"/>
<rect x="30" y="38" width="2" height="2" fill="#2D2B3D"/>
<rect x="34" y="38" width="2" height="2" fill="#2D2B3D"/>
<rect x="28" y="40" width="2" height="1" fill="#E8A8A0" opacity="0.7"/>
<rect x="36" y="40" width="2" height="1" fill="#E8A8A0" opacity="0.7"/>
<rect x="26" y="35" width="2" height="3" fill="#E8D8C0"/>
<rect x="38" y="35" width="2" height="3" fill="#E8D8C0"/>
<rect x="28" y="45" width="2" height="2" fill="#C8B888"/>
<rect x="34" y="45" width="2" height="2" fill="#C8B888"/>
</svg>
